<?xml version="1.0" encoding="UTF-8" standalone="no"?><!DOCTYPE svg PUBLIC "-//W3C//DTD SVG 1.1//EN" "http://www.w3.org/Graphics/SVG/1.1/DTD/svg11.dtd"><svg width="100%" height="100%" viewBox="0 0 800 800" version="1.1" xmlns="http://www.w3.org/2000/svg" xmlns:xlink="http://www.w3.org/1999/xlink" xml:space="preserve" xmlns:serif="http://www.serif.com/" style="fill-rule:evenodd;clip-rule:evenodd;stroke-linejoin:round;stroke-miterlimit:2;"><path d="M790.467,407.484c0,-32.776 -2.66,-56.693 -8.415,-81.496l-374.266,0l0,147.933l219.685,0c-4.427,36.763 -28.345,92.128 -81.496,129.331l-0.745,4.953l118.336,91.673l8.198,0.818c75.295,-69.539 118.702,-171.853 118.702,-293.212" style="fill:#4285f4;fill-rule:nonzero;"/><path d="M407.786,797.252c107.627,0 197.982,-35.435 263.979,-96.556l-125.789,-97.444c-33.661,23.475 -78.84,39.863 -138.189,39.863c-105.414,0 -194.882,-69.536 -226.776,-165.649l-4.675,0.397l-123.047,95.227l-1.609,4.473c65.551,130.217 200.198,219.689 356.107,219.689" style="fill:#34a853;fill-rule:nonzero;"/><path d="M181.011,477.466c-8.415,-24.803 -13.285,-51.38 -13.285,-78.84c0,-27.463 4.87,-54.037 12.843,-78.84l-0.223,-5.282l-124.589,-96.757l-4.076,1.939c-27.017,54.037 -42.519,114.718 -42.519,178.94c0,64.223 15.502,124.901 42.519,178.937l129.331,-100.098" style="fill:#fbbc05;fill-rule:nonzero;"/><path d="M407.786,154.134c74.852,0 125.344,32.333 154.134,59.353l112.501,-109.844c-69.093,-64.223 -159.008,-103.643 -266.635,-103.643c-155.908,0 -290.556,89.469 -356.107,219.685l128.889,100.101c32.336,-96.113 121.805,-165.652 227.218,-165.652" style="fill:#eb4335;fill-rule:nonzero;"/></svg>