<?xml version="1.0" encoding="UTF-8" standalone="no"?><!DOCTYPE svg PUBLIC "-//W3C//DTD SVG 1.1//EN" "http://www.w3.org/Graphics/SVG/1.1/DTD/svg11.dtd"><svg width="100%" height="100%" viewBox="0 0 252 299" version="1.1" xmlns="http://www.w3.org/2000/svg" xmlns:xlink="http://www.w3.org/1999/xlink" xml:space="preserve" xmlns:serif="http://www.serif.com/" style="fill-rule:evenodd;clip-rule:evenodd;stroke-linejoin:round;stroke-miterlimit:2;"><path d="M125.673,132.384l0,166.548l-125.673,0l0,-166.548c0,-34.681 28.156,-62.837 62.837,-62.837c34.681,0 62.837,28.156 62.837,62.837Z" style="fill:#871414;"/><path d="M251.347,190.95l0,107.982l-125.673,0l0,-107.982c0,-34.681 28.156,-62.837 62.837,-62.837c34.681,0 62.837,28.156 62.837,62.837Z" style="fill:#f4740f;"/><path d="M188.51,62.837l0,236.095l-125.673,0l0,-236.095c0,-34.681 28.156,-62.837 62.837,-62.837c34.681,0 62.837,28.156 62.837,62.837Z" style="fill:#5aad1f;"/></svg>