<?xml version="1.0" encoding="UTF-8" standalone="no"?><!DOCTYPE svg PUBLIC "-//W3C//DTD SVG 1.1//EN" "http://www.w3.org/Graphics/SVG/1.1/DTD/svg11.dtd"><svg width="100%" height="100%" viewBox="0 0 52 13" version="1.1" xmlns="http://www.w3.org/2000/svg" xmlns:xlink="http://www.w3.org/1999/xlink" xml:space="preserve" xmlns:serif="http://www.serif.com/" style="fill-rule:evenodd;clip-rule:evenodd;stroke-linejoin:round;stroke-miterlimit:2;"><path d="M14.446,10.092c-0.78,0.468 -1.968,1.272 -3.036,1.68c-0.468,0.192 -0.984,0.324 -1.452,0.324c-0.132,0 -0.264,-0.012 -0.384,-0.036c-0.708,-0.144 -1.128,-0.6 -1.128,-2.352c0,-0.672 0.06,-1.536 0.192,-2.64c0.036,-0.288 0.072,-0.576 0.12,-0.876c0.576,-0.552 1.2,-1.14 1.86,-1.704c2.688,-2.304 4.728,-3.804 5.652,-3.636c0.18,0.036 0.18,0.168 0.18,0.192c-0.048,0.252 -0.12,0.468 -0.192,0.564c0.192,-0.192 0.612,-0.624 0.6,-1.068c-0.024,-0.216 -0.204,-0.54 -0.516,-0.54c-0.276,0 -0.636,0.072 -0.96,0.192c-1.512,0.564 -3.444,2.292 -6.516,5.28c0.168,-1.032 0.348,-2.052 0.348,-2.88c0,-0.732 -0.132,-1.308 -0.516,-1.632c-0.276,-0.24 -0.636,-0.348 -1.02,-0.348c-2.424,0 -6.468,4.128 -6.468,5.688c0,0.336 0.288,0.66 0.66,0.672c0.396,0.012 0.864,-0.3 0.876,-0.384c-0.072,0.012 -0.336,0.06 -0.432,0.06c-0.192,0 -0.372,0 -0.372,-0.156c0,-1.284 3.852,-5.592 5.64,-5.592c0.204,0 0.372,0.06 0.516,0.18c0.132,0.12 0.192,0.432 0.192,0.888c0,1.092 -0.312,2.976 -0.564,4.596c-3.048,2.82 -6.216,4.872 -7.248,4.872c-0.024,-0.084 0.192,-0.72 0.396,-1.068c-0.156,0.168 -0.72,0.792 -0.84,1.236c-0.144,0.492 0.204,1.02 0.48,1.02c1.32,0 4.296,-2.712 7.128,-5.388c-0.096,0.72 -0.156,1.452 -0.156,2.136c0,1.776 0.444,3.216 1.98,3.264c0.42,0.012 1.164,-0.12 1.824,-0.444c1.668,-0.816 2.868,-1.788 3.156,-2.1Z" style="fill:#fff;fill-rule:nonzero;"/><path d="M13.186,8.58c1.344,-0.036 3.648,-1.764 3.648,-2.508c0,-0.336 -0.552,-0.612 -0.732,-0.612c-0.516,0 -1.584,0.372 -2.58,1.2c-0.756,0.636 -1.368,1.392 -1.656,2.076c-0.096,0.264 -0.168,0.504 -0.168,0.792c0,0.324 0.48,0.756 0.852,0.756c1.596,0 3.984,-2.292 4.884,-3.132c0.036,-0.036 -0.048,-0.096 -0.084,-0.072c-1.212,1.008 -3.408,2.676 -4.284,2.676c-0.264,0 -0.372,-0.084 -0.36,-0.228c0.036,-0.312 0.264,-0.696 0.48,-0.948Zm3.264,-2.76c-0.072,0.456 -2.064,2.4 -3.108,2.52c0.396,-0.636 1.776,-2.088 3.108,-2.52Z" style="fill:#fff;fill-rule:nonzero;"/><path d="M18.946,9.108c-0.06,0.18 -0.132,0.396 -0.132,0.516c0,0.216 0.24,0.492 0.432,0.588c0.06,0.048 0.132,0.072 0.192,0.072c0.72,0 2.676,-2.004 3.72,-3.144c0.036,-0.036 -0.024,-0.132 -0.096,-0.072c-0.732,0.696 -2.436,2.328 -3.192,2.556c0,-0.336 0.444,-1.188 1.044,-1.992c0.396,-0.528 0.732,-0.96 0.912,-1.152c0.156,-0.168 0.312,-0.276 0.396,-0.276c0.108,0.012 0.144,0.072 0.144,0.024c0,-0.3 -0.456,-0.768 -0.744,-0.768c-0.048,0 -0.108,0.012 -0.168,0.06c-0.684,0.528 -1.572,1.572 -2.196,2.184c-0.576,0.552 -1.8,1.632 -2.376,1.872c0,-0.348 0.6,-1.392 1.212,-2.196c0.408,-0.528 0.912,-1.152 1.092,-1.128c0.108,0.012 0.156,0.072 0.156,0.024c0,-0.312 -0.468,-0.78 -0.756,-0.78c-0.036,0 -0.108,0.012 -0.168,0.072c-0.3,0.24 -0.804,0.816 -1.224,1.404c-0.684,0.948 -1.344,2.16 -1.344,2.676c0,0.288 0.372,0.612 0.564,0.612l0.096,0c0.72,-0.144 2.328,-1.872 3.54,-3.108c-0.444,0.552 -0.9,1.404 -1.104,1.956Z" style="fill:#fff;fill-rule:nonzero;"/><path d="M26.542,3.252c0.732,-0.912 1.272,-1.44 1.596,-1.272c0.228,0.132 -0.24,-0.576 -0.912,-0.576c-0.108,0 -0.264,0.084 -0.456,0.216c-0.564,0.468 -1.032,1.044 -1.452,1.608c-1.236,1.644 -2.724,3.828 -3.396,5.328c-0.348,0.792 -0.372,1.152 -0.336,1.248c0.084,0.192 0.324,0.444 0.432,0.48c0.12,0.072 0.24,0.12 0.384,0.06c-0.54,-0.06 -0.048,-0.756 0.3,-1.26c1.248,-1.836 3.648,-3.096 3.852,-3.084c-0.108,0.6 -2.292,3.792 -3.504,3.792c-0.24,0 -0.456,-0.228 -0.456,-0.348c0,-0.036 -0.048,-0.012 -0.048,0.048c0,0.396 0.528,0.708 0.996,0.708c1.656,0 3.984,-2.916 3.984,-3.996c0,-0.168 -0.42,-0.624 -0.564,-0.684c-0.648,-0.228 -2.76,1.404 -3.696,2.556c0.924,-1.776 2.088,-3.336 3.276,-4.824Z" style="fill:#fff;fill-rule:nonzero;"/><path d="M27.118,10.284c0.744,-0.06 2.652,-2.016 3.696,-3.144c0.036,-0.036 -0.024,-0.132 -0.108,-0.072c-0.732,0.708 -2.484,2.376 -3.216,2.568c0.144,-0.492 1.788,-3.228 2.28,-3.18c0.096,0.012 0.156,0.072 0.156,0.024c0,-0.3 -0.48,-0.78 -0.756,-0.78c-0.048,0 -0.12,0.012 -0.18,0.072c-0.768,0.612 -2.508,3.228 -2.508,3.924c0,0.216 0.3,0.516 0.492,0.576c0.06,0.012 0.096,0.012 0.144,0.012Zm3.168,-6.42c-0.312,0.096 -0.768,0.876 -0.756,1.224c0.012,0.216 0.264,0.468 0.432,0.252c0.144,-0.204 0.696,-0.696 0.9,-0.78c0.132,-0.06 0.228,-0.012 0.252,-0.012c0.048,0 -0.024,-0.18 -0.132,-0.3c-0.156,-0.18 -0.42,-0.42 -0.696,-0.384Z" style="fill:#fff;fill-rule:nonzero;"/><path d="M32.254,9.204c-0.048,0.18 -0.096,0.324 -0.096,0.444c0,0.216 0.228,0.468 0.396,0.564c0.084,0.048 0.144,0.072 0.204,0.072c0.72,0 2.676,-2.004 3.72,-3.144c0.036,-0.036 -0.024,-0.132 -0.084,-0.072c-0.744,0.696 -2.46,2.34 -3.216,2.556c0,-0.096 0.048,-0.24 0.12,-0.408c0.36,-0.768 1.44,-2.076 1.5,-1.956c0.048,-0.144 -0.36,-0.804 -0.6,-0.684c-0.3,0.168 -1.08,0.924 -1.296,1.116c-0.624,0.528 -2.304,1.74 -2.7,1.872c-0.036,0.012 -0.06,0.012 -0.084,0c-0.108,-0.06 0.792,-1.572 1.932,-2.544c0.78,-0.66 1.656,-1.164 2.352,-1.2c0.36,-0.024 0.588,0.156 0.588,0.516c0,0.18 -0.072,0.324 -0.132,0.432c-0.012,0.012 0.012,0.024 0.036,0.012c0.12,-0.156 0.228,-0.36 0.228,-0.564c0,-0.564 -0.6,-0.756 -1.056,-0.756c-2.208,0 -4.956,2.676 -4.956,3.984c0,0.24 0.312,0.696 0.528,0.804c0.024,0.012 0.084,0.036 0.108,0.036c0.504,0 2.844,-2.016 3.204,-2.376c-0.228,0.3 -0.552,0.852 -0.696,1.296Z" style="fill:#fff;fill-rule:nonzero;"/><path d="M36.286,7.008c-0.48,0.684 -1.02,1.512 -1.32,2.196c-0.144,0.276 -0.204,0.504 -0.18,0.612c0.084,0.336 0.372,0.708 0.72,0.624c-0.264,-0.12 0.456,-1.176 1.068,-1.836c0.816,-0.9 1.38,-1.38 2.484,-2.028c-0.312,0.36 -0.696,1.056 -0.696,1.392c0,0.144 0.36,0.564 0.576,0.564c0.828,0 2.268,-1.344 2.484,-1.632c-0.012,-0.024 -0.084,-0.012 -0.096,0c-0.744,0.66 -1.572,1.2 -2.148,1.248c0.396,-0.936 1.392,-1.812 1.656,-2.088c0.084,-0.096 -0.408,-0.612 -0.54,-0.6c-0.252,0.024 -0.612,0.228 -1.08,0.564c-1.032,0.744 -2.232,1.752 -2.868,2.58c0.252,-0.444 0.672,-1.008 0.996,-1.44c0.36,-0.48 0.78,-0.948 0.96,-0.936c0.096,0.012 0.132,0.072 0.132,0.024c0,-0.3 -0.456,-0.768 -0.744,-0.768c-0.048,0 -0.096,0.012 -0.168,0.06c-0.3,0.24 -0.816,0.852 -1.236,1.464Z" style="fill:#fff;fill-rule:nonzero;"/><path d="M43.426,3.468c-1.344,0.156 -2.664,0.492 -2.616,1.032c0.036,0.384 0.444,0.612 0.636,0.612c-0.312,-0.18 0.396,-0.756 1.536,-0.984c-0.444,0.588 -0.792,1.116 -1.116,1.608c-1.476,2.28 -2.016,3.456 -2.016,3.816c0,0.132 0.024,0.156 0.036,0.18c0.072,0.18 0.336,0.432 0.432,0.48c0.108,0.06 0.228,0.108 0.384,0.048c0.72,-0.264 2.808,-2.448 3.396,-3.12c0.036,-0.036 -0.012,-0.132 -0.084,-0.072c-0.708,0.648 -2.7,2.604 -3.216,2.544c0.288,-0.768 1.188,-2.292 2.232,-3.876c0.48,-0.708 0.876,-1.308 1.32,-1.86c2.004,-0.3 4.2,-0.312 6.576,-0.108c0.144,0.012 0.096,-0.012 0,-0.036c-1.716,-0.36 -4.248,-0.456 -6.18,-0.36c0.528,-0.684 1.236,-1.644 1.62,-1.464c0.228,0.132 -0.252,-0.564 -0.924,-0.528c-0.108,0 -0.264,0.096 -0.444,0.24c-0.3,0.24 -0.636,0.624 -1.572,1.848Z" style="fill:#fff;fill-rule:nonzero;"/></svg>